# Blender v2.78 (sub 0) OBJ File: ''
# www.blender.org
o skybox.002
v -1.000000 -1.000000 1.000000
v -1.000000 1.000000 1.000000
v -1.000000 1.000000 -1.000000
v -1.000000 -1.000000 -1.000000
v -1.000000 -1.000000 -1.000000
v -1.000000 1.000000 -1.000000
v 1.000000 1.000000 -1.000000
v 1.000000 -1.000000 -1.000000
v 1.000000 -1.000000 -1.000000
v 1.000000 1.000000 -1.000000
v 1.000000 1.000000 1.000000
v 1.000000 -1.000000 1.000000
v 1.000000 -1.000000 1.000000
v 1.000000 1.000000 1.000000
v -1.000000 1.000000 1.000000
v -1.000000 -1.000000 1.000000
v -1.000000 -1.000000 -1.000000
v 1.000000 -1.000000 -1.000000
v 1.000000 -1.000000 1.000000
v -1.000000 -1.000000 1.000000
v 1.000000 1.000000 -1.000000
v -1.000000 1.000000 -1.000000
v -1.000000 1.000000 1.000000
v 1.000000 1.000000 1.000000
vt 0.9962 0.6646
vt 0.7476 0.3354
vt 0.9962 0.3354
vt 0.7476 0.6646
vt 0.4991 0.3354
vt 0.7476 0.3354
vt 0.4991 0.6646
vt 0.2505 0.3354
vt 0.4991 0.3354
vt 0.2505 0.6646
vt 0.0019 0.3354
vt 0.2505 0.3354
vt 0.4991 0.3354
vt 0.2505 0.0063
vt 0.4991 0.0063
vt 0.4991 0.9937
vt 0.2505 0.6646
vt 0.4991 0.6646
vt 0.7476 0.6646
vt 0.4991 0.6646
vt 0.2505 0.6646
vt 0.0019 0.6646
vt 0.2505 0.3354
vt 0.2505 0.9937
vn -1.0000 0.0000 0.0000
vn 0.0000 0.0000 -1.0000
vn 1.0000 0.0000 0.0000
vn 0.0000 -0.0000 1.0000
vn 0.0000 -1.0000 -0.0000
vn 0.0000 1.0000 0.0000
s off
f 2/1/1 4/2/1 1/3/1
f 6/4/2 8/5/2 5/6/2
f 10/7/3 12/8/3 9/9/3
f 14/10/4 16/11/4 13/12/4
f 18/13/5 20/14/5 17/15/5
f 22/16/6 24/17/6 21/18/6
f 2/1/1 3/19/1 4/2/1
f 6/4/2 7/20/2 8/5/2
f 10/7/3 11/21/3 12/8/3
f 14/10/4 15/22/4 16/11/4
f 18/13/5 19/23/5 20/14/5
f 22/16/6 23/24/6 24/17/6
